<svg width="261" height="70" viewBox="0 0 261 70" fill="none" xmlns="http://www.w3.org/2000/svg">
<path d="M56.5676 57.8092C55.5077 56.1778 53.9364 54.9444 52.1 54.3023C50.2635 53.6603 48.2659 53.6459 46.4205 54.2616L44.1668 55.0128C43.8012 53.7752 43.0178 52.7027 41.95 51.9782C40.8822 51.2536 39.5961 50.9218 38.3111 51.0394L30.3132 51.7665L29.1732 51.0069C27.3327 49.7799 25.124 49.2286 22.9229 49.4466C20.7217 49.6645 18.6641 50.6384 17.1 52.2025L15.1031 54.1999H14.4C14.4 53.8817 14.2736 53.5764 14.0485 53.3514C13.8235 53.1264 13.5183 52.9999 13.2 52.9999H8.68335L6.5367 51.9267C6.37008 51.8433 6.18632 51.7999 6 51.7999H0V54.1999H5.71665L7.2 54.9415V65.4583L5.71665 66.1999H0V68.5999H6C6.18632 68.6 6.37008 68.5566 6.5367 68.4732L8.68335 67.3999H13.2C13.5183 67.3999 13.8235 67.2735 14.0485 67.0485C14.2736 66.8234 14.4 66.5182 14.4 66.1999H21.4524L35.709 69.7641C35.8777 69.8064 36.0536 69.8115 36.2246 69.7791L61.4246 64.9791C61.5803 64.9494 61.7285 64.8892 61.8609 64.8019C61.9932 64.7146 62.1069 64.602 62.1954 64.4705C62.2839 64.3391 62.3455 64.1913 62.3767 64.0359C62.4078 63.8805 62.4078 63.7205 62.3768 63.565C62.0967 62.134 61.3931 60.8201 60.3573 59.7938C59.3214 58.7675 58.0011 58.0761 56.5676 57.8092V57.8092ZM12 64.9999H9.6V55.3999H12V64.9999ZM43.3826 57.786C43.4494 57.7755 43.5152 57.7594 43.5794 57.7378L43.5944 57.733L47.1794 56.538C48.2572 56.1786 49.4113 56.113 50.5229 56.348C51.6345 56.583 52.6634 57.1102 53.5035 57.8751L42.1005 60.1558L37.9922 58.6149L43.3826 57.786ZM36.0348 67.3717L21.891 63.8358C21.7958 63.8119 21.6981 63.7999 21.6 63.7999H14.4V56.5999H15.6C15.7576 56.5999 15.9136 56.5689 16.0592 56.5086C16.2048 56.4483 16.3371 56.3599 16.4486 56.2485L18.7976 53.8999C19.9693 52.7282 21.5109 51.9986 23.1599 51.8353C24.809 51.672 26.4637 52.0851 27.8426 53.0043L29.3343 53.9988C29.5624 54.1509 29.8357 54.2203 30.1088 54.1954L38.5284 53.4304C39.2435 53.3663 39.9595 53.5451 40.5604 53.938C41.1614 54.3309 41.6123 54.915 41.8404 55.5958L27.4175 57.8148L27.7826 60.1869L33.1457 59.3619L41.5785 62.5246C41.7882 62.6033 42.0157 62.6217 42.2354 62.5777L54.2364 60.1777C55.309 59.9641 56.4221 60.1135 57.4004 60.6023C58.3787 61.0912 59.1665 61.8917 59.6396 62.8777L36.0348 67.3717Z" fill="url(#paint0_linear_2_11)"/>
<path d="M45.7163 52.7632C49.094 50.782 51.7853 47.8153 53.4292 44.2611C55.073 40.7069 55.5909 36.735 54.9133 32.8781C54.2357 29.0212 52.395 25.4637 49.6381 22.6826C46.8813 19.9015 43.34 18.0298 39.4891 17.3185C35.6383 16.6072 31.662 17.0904 28.0936 18.7031C24.5251 20.3158 21.5351 22.9811 19.5244 26.3414C17.5137 29.7018 16.5785 33.5965 16.8442 37.5035C17.1099 41.4104 18.5638 45.1428 21.011 48.1999L22.8837 46.6989C20.4858 43.7265 19.1849 40.0189 19.2 36.1999C19.2006 33.256 19.9748 30.3638 21.445 27.8133C22.9152 25.2627 25.0298 23.1433 27.577 21.6673C30.1243 20.1913 33.0146 19.4105 35.9586 19.4033C38.9025 19.396 41.7967 20.1625 44.3512 21.6259C46.9056 23.0893 49.0307 25.1983 50.5135 27.7416C51.9963 30.2849 52.7847 33.1732 52.7998 36.1171C52.8149 39.061 52.0561 41.9572 50.5995 44.5156C49.1429 47.0739 47.0395 49.2046 44.5002 50.6941L45.7163 52.7632ZM69.6 34.9999H72V37.3999H69.6V34.9999ZM0 34.9999H2.4V37.3999H0V34.9999ZM34.8 0.199921H37.2V2.59992H34.8V0.199921Z" fill="url(#paint1_linear_2_11)"/>
<path d="M63.2485 44.9514C63.1371 44.8399 63.0048 44.7515 62.8592 44.6912C62.7136 44.6309 62.5576 44.5999 62.4 44.5999H58.4919C58.7849 43.8137 59.0362 43.0126 59.2446 42.1999H64.8V39.7999H59.7316C59.8503 39.0084 59.9299 38.2084 59.9703 37.3999H67.2V34.9999H59.97C59.9302 34.1964 59.8501 33.3954 59.73 32.5999H64.8V30.1999H59.2407C58.1605 26.0523 55.9932 22.268 52.9626 19.2373C49.9319 16.2067 46.1476 14.0394 42 12.9592V7.39991H39.6V12.4699C38.8045 12.3498 38.0035 12.2697 37.2 12.2299V4.99991H34.8V12.2299C33.9965 12.2697 33.1955 12.3498 32.4 12.4699V7.39991H30V12.9592C26.6934 13.8208 23.6078 15.3756 20.9479 17.5204C18.2879 19.6652 16.1144 22.3511 14.5714 25.3999H10.0969L8.04854 23.3514C7.93711 23.2399 7.80482 23.1515 7.65922 23.0912C7.51363 23.0309 7.35758 22.9999 7.19999 22.9999H2.39999V25.3999H6.70304L8.75144 27.4485C8.86288 27.5599 8.99517 27.6483 9.14076 27.7086C9.28636 27.7689 9.44241 27.7999 9.59999 27.7999H13.5183C13.2231 28.586 12.9698 29.3871 12.7593 30.1999H7.19999V32.5999H12.27C12.1498 33.3954 12.0697 34.1964 12.03 34.9999H4.79999V37.3999H12.03C12.07 38.2073 12.1492 39.0073 12.2676 39.7999H7.19999V42.1999H12.7537C13.4888 45.0552 14.7472 47.7493 16.4652 50.1454L18.4174 48.7495C15.7948 45.0914 14.3893 40.701 14.4 36.1999C14.4 24.2899 24.09 14.5999 36 14.5999C47.91 14.5999 57.6 24.2899 57.6 36.1999C57.6126 41.8399 55.4067 47.2587 51.4585 51.2863L53.1759 52.9626C54.8944 51.2048 56.3331 49.1939 57.4417 46.9999H61.903L63.9514 49.0485C64.0629 49.1599 64.1952 49.2483 64.3408 49.3086C64.4864 49.3689 64.6424 49.3999 64.8 49.3999H69.6V46.9999H65.2969L63.2485 44.9514Z" fill="url(#paint2_linear_2_11)"/>
<path d="M43.2 32.5999C43.1987 31.5361 42.8446 30.5027 42.1931 29.6616C41.5417 28.8205 40.6297 28.2192 39.6 27.9519V25.3999H37.2V27.7999H34.8V25.3999H32.4V27.7999H27.6V30.1999H30V42.1999H27.6V44.5999H32.4V46.9999H34.8V44.5999H37.2V46.9999H39.6V44.448C40.4446 44.2304 41.2138 43.7867 41.825 43.1646C42.4362 42.5424 42.8662 41.7654 43.0688 40.9172C43.2714 40.0689 43.2389 39.1814 42.9748 38.3503C42.7106 37.5191 42.2249 36.7757 41.5698 36.1999C42.0821 35.7504 42.4925 35.1968 42.7736 34.576C43.0547 33.9551 43.2001 33.2814 43.2 32.5999V32.5999ZM40.8 39.7999C40.7992 40.4362 40.5461 41.0462 40.0962 41.4962C39.6463 41.9461 39.0363 42.1992 38.4 42.1999H32.4V37.3999H38.4C39.0363 37.4007 39.6463 37.6538 40.0962 38.1037C40.5461 38.5536 40.7992 39.1636 40.8 39.7999V39.7999ZM33.6 34.9999H32.4V30.1999H38.4C39.0365 30.1999 39.647 30.4528 40.0971 30.9029C40.5471 31.353 40.8 31.9634 40.8 32.5999C40.8 33.2365 40.5471 33.8469 40.0971 34.297C39.647 34.7471 39.0365 34.9999 38.4 34.9999H33.6ZM45.6 34.9999H48V37.3999H45.6V34.9999ZM24 34.9999H26.4V37.3999H24V34.9999Z" fill="url(#paint3_linear_2_11)"/>
<path d="M99.724 43.473C99.104 43.8657 98.2567 44.1963 97.182 44.465C96.1073 44.7543 94.981 44.9197 93.803 44.961C92.0257 45.023 90.424 44.7543 88.998 44.155C87.572 43.5763 86.3527 42.76 85.34 41.706C84.348 40.652 83.5833 39.412 83.046 37.986C82.5087 36.56 82.24 35.0203 82.24 33.367C82.24 31.755 82.4777 30.2773 82.953 28.934C83.4283 27.5907 84.1103 26.4333 84.999 25.462C85.8877 24.5113 86.9623 23.7673 88.223 23.23C89.5043 22.6927 90.9407 22.424 92.532 22.424C93.648 22.424 94.6607 22.579 95.57 22.889C96.5 23.199 97.2853 23.5917 97.926 24.067C98.5873 24.5423 99.0937 25.0797 99.445 25.679C99.817 26.2577 100.003 26.8363 100.003 27.415H96.81C96.81 27.105 96.7067 26.7743 96.5 26.423C96.314 26.0717 96.035 25.741 95.663 25.431C95.291 25.121 94.826 24.8627 94.268 24.656C93.7307 24.4493 93.1107 24.346 92.408 24.346C91.788 24.346 91.075 24.4803 90.269 24.749C89.463 24.997 88.688 25.4413 87.944 26.082C87.2207 26.7227 86.611 27.601 86.115 28.717C85.619 29.8123 85.371 31.197 85.371 32.871C85.371 34.2143 85.5467 35.506 85.898 36.746C86.27 37.9653 86.8073 39.04 87.51 39.97C88.2333 40.9 89.1117 41.644 90.145 42.202C91.1783 42.76 92.377 43.039 93.741 43.039C94.6503 43.039 95.5803 42.9357 96.531 42.729C97.4817 42.5223 98.4117 42.202 99.321 41.768C99.5277 41.6853 99.7137 41.6957 99.879 41.799C100.044 41.8817 100.158 42.0263 100.22 42.233C100.282 42.419 100.272 42.636 100.189 42.884C100.127 43.1113 99.972 43.3077 99.724 43.473ZM103.53 44.651V33.46C103.53 33.1913 103.519 32.9433 103.499 32.716C103.499 32.4887 103.478 32.282 103.437 32.096C103.395 31.91 103.323 31.7343 103.22 31.569C103.137 31.4037 103.013 31.259 102.848 31.135C102.682 31.0317 102.486 30.9593 102.259 30.918C102.031 30.856 101.825 30.825 101.639 30.825C101.37 30.825 101.153 30.7527 100.988 30.608C100.843 30.4427 100.771 30.2567 100.771 30.05C100.771 29.864 100.843 29.709 100.988 29.585C101.153 29.461 101.339 29.399 101.546 29.399H104.708C105.183 29.399 105.555 29.5643 105.824 29.895C106.092 30.205 106.227 30.5253 106.227 30.856V32.406C106.309 32.158 106.475 31.8583 106.723 31.507C106.971 31.135 107.291 30.7733 107.684 30.422C108.076 30.0913 108.541 29.802 109.079 29.554C109.637 29.306 110.257 29.182 110.939 29.182H112.52V31.941C110.494 31.6517 108.934 31.91 107.839 32.716C106.764 33.5013 106.227 34.8757 106.227 36.839V44.651H103.53ZM112.695 30.639C112.53 30.639 112.364 30.577 112.199 30.453C112.034 30.329 111.951 30.174 111.951 29.988C111.951 29.802 112.034 29.6573 112.199 29.554C112.344 29.4507 112.499 29.399 112.664 29.399H116.446L121.127 40.28L125.374 29.399H126.397C126.728 29.399 126.965 29.461 127.11 29.585C127.255 29.709 127.337 29.8433 127.358 29.988C127.399 30.1327 127.399 30.267 127.358 30.391C127.337 30.4943 127.327 30.546 127.327 30.546L120.29 48.34C120.042 49.0013 119.556 49.4767 118.833 49.766C118.11 50.0553 117.345 50.1897 116.539 50.169C115.154 50.1277 114.069 49.704 113.284 48.898C112.499 48.1127 112.106 47.0793 112.106 45.798H115.02C115.02 45.9013 115.01 45.9943 114.989 46.077C114.989 46.1597 114.989 46.2527 114.989 46.356C114.989 46.4387 114.989 46.5213 114.989 46.604C114.989 46.7073 114.999 46.8003 115.02 46.883C115.082 47.317 115.278 47.6477 115.609 47.875C115.94 48.1023 116.281 48.216 116.632 48.216C116.942 48.2367 117.262 48.1747 117.593 48.03C117.924 47.906 118.172 47.627 118.337 47.193L119.763 43.783L115.175 33.212C115.01 32.8813 114.855 32.561 114.71 32.251C114.586 31.9203 114.431 31.6413 114.245 31.414C114.059 31.1867 113.842 31.0007 113.594 30.856C113.346 30.7113 113.046 30.639 112.695 30.639ZM133.259 35.258V37.893C133.259 38.3477 133.321 38.8747 133.445 39.474C133.569 40.0733 133.786 40.652 134.096 41.21C134.385 41.7473 134.778 42.202 135.274 42.574C135.79 42.946 136.421 43.132 137.165 43.132C137.971 43.132 138.632 42.946 139.149 42.574C139.686 42.1813 140.12 41.675 140.451 41.055C140.761 40.4557 140.978 39.7943 141.102 39.071C141.246 38.327 141.319 37.614 141.319 36.932C141.319 36.312 141.246 35.6507 141.102 34.948C140.978 34.2247 140.75 33.5633 140.42 32.964C140.11 32.3647 139.676 31.8583 139.118 31.445C138.58 31.0317 137.909 30.825 137.103 30.825C136.173 30.825 135.315 31.2177 134.53 32.003C133.744 32.7677 133.321 33.8527 133.259 35.258ZM133.228 30.825V31.476C133.269 31.3313 133.403 31.1247 133.631 30.856C133.858 30.5873 134.158 30.3187 134.53 30.05C134.881 29.802 135.294 29.585 135.77 29.399C136.266 29.1923 136.813 29.089 137.413 29.089C139.397 29.089 141.009 29.7813 142.249 31.166C143.489 32.5507 144.109 34.452 144.109 36.87C144.109 37.924 143.985 38.9367 143.737 39.908C143.509 40.8793 143.137 41.7473 142.621 42.512C142.104 43.256 141.422 43.845 140.575 44.279C139.748 44.7337 138.735 44.961 137.537 44.961C136.483 44.961 135.584 44.713 134.84 44.217C134.096 43.7417 133.569 43.225 133.259 42.667V50.293H130.562V33.46C130.562 33.1913 130.551 32.9433 130.531 32.716C130.531 32.4887 130.51 32.282 130.469 32.096C130.427 31.91 130.355 31.7343 130.252 31.569C130.169 31.4037 130.045 31.259 129.88 31.135C129.714 31.0317 129.518 30.9593 129.291 30.918C129.063 30.856 128.857 30.825 128.671 30.825C128.402 30.825 128.185 30.7527 128.02 30.608C127.875 30.4427 127.803 30.2567 127.803 30.05C127.803 29.864 127.875 29.709 128.02 29.585C128.185 29.461 128.371 29.399 128.578 29.399H131.709C132.184 29.399 132.556 29.5643 132.825 29.895C133.093 30.205 133.228 30.515 133.228 30.825ZM155.286 42.946V44.713C154.914 44.7957 154.449 44.8577 153.891 44.899C153.354 44.9403 152.93 44.961 152.62 44.961C151.608 44.961 150.802 44.8577 150.202 44.651C149.603 44.465 149.138 44.1757 148.807 43.783C148.497 43.3903 148.291 42.915 148.187 42.357C148.105 41.7783 148.063 41.117 148.063 40.373V31.228H145.583V29.399H148.063V26.826L150.698 24.346V29.399H154.976V31.228H150.729V40.993C150.729 41.4683 150.781 41.8507 150.884 42.14C150.988 42.4293 151.163 42.636 151.411 42.76C151.742 42.946 152.259 43.07 152.961 43.132C153.685 43.194 154.46 43.132 155.286 42.946ZM164.822 44.961C162.59 44.961 160.761 44.2893 159.335 42.946C157.93 41.6027 157.227 39.66 157.227 37.118C157.227 36.0433 157.382 35.0203 157.692 34.049C158.002 33.0777 158.467 32.22 159.087 31.476C159.707 30.7527 160.482 30.174 161.412 29.74C162.363 29.306 163.479 29.089 164.76 29.089C167.116 29.089 168.976 29.8227 170.34 31.29C171.725 32.7367 172.417 34.669 172.417 37.087C172.417 39.4637 171.735 41.3753 170.371 42.822C169.028 44.248 167.178 44.961 164.822 44.961ZM160.141 37.118C160.141 37.9033 160.224 38.668 160.389 39.412C160.555 40.156 160.823 40.807 161.195 41.365C161.567 41.9437 162.053 42.4087 162.652 42.76C163.252 43.0907 163.985 43.256 164.853 43.256C165.659 43.256 166.352 43.0803 166.93 42.729C167.509 42.3777 167.984 41.9127 168.356 41.334C168.728 40.776 168.997 40.125 169.162 39.381C169.348 38.637 169.441 37.8723 169.441 37.087C169.441 36.3223 169.359 35.568 169.193 34.824C169.028 34.0593 168.759 33.3773 168.387 32.778C168.015 32.1993 167.53 31.724 166.93 31.352C166.331 30.98 165.597 30.794 164.729 30.794C163.882 30.794 163.169 30.9697 162.59 31.321C162.012 31.6723 161.536 32.1477 161.164 32.747C160.792 33.3257 160.524 33.9973 160.358 34.762C160.214 35.5267 160.141 36.312 160.141 37.118ZM176.612 44.651V26.826C176.612 26.02 176.467 25.3793 176.178 24.904C175.889 24.408 175.372 24.1497 174.628 24.129C174.38 24.129 174.184 24.067 174.039 23.943C173.915 23.7983 173.853 23.6227 173.853 23.416C173.853 23.23 173.915 23.075 174.039 22.951C174.163 22.8063 174.318 22.734 174.504 22.734H180.022L189.508 40.249V22.734H191.864V43.194C191.864 43.5247 191.719 43.845 191.43 44.155C191.161 44.4857 190.841 44.651 190.469 44.651H189.198L178.906 26.175V44.651H176.612ZM203.06 44.682C201.965 44.6613 200.942 44.4443 199.991 44.031C199.04 43.6383 198.214 43.0803 197.511 42.357C196.788 41.6337 196.219 40.7553 195.806 39.722C195.413 38.6887 195.217 37.5107 195.217 36.188C195.217 34.9893 195.403 33.9353 195.775 33.026C196.147 32.096 196.674 31.321 197.356 30.701C198.017 30.081 198.803 29.616 199.712 29.306C200.642 28.9753 201.655 28.81 202.75 28.81C203.556 28.81 204.352 28.9547 205.137 29.244C205.943 29.5333 206.666 29.957 207.307 30.515C207.927 31.073 208.433 31.755 208.826 32.561C209.219 33.367 209.415 34.2763 209.415 35.289V37.149H198.1C198.245 38.8023 198.792 40.1457 199.743 41.179C200.714 42.1917 202.068 42.7807 203.804 42.946C204.114 42.9873 204.693 42.977 205.54 42.915C206.408 42.8323 207.286 42.605 208.175 42.233C208.382 42.1503 208.557 42.1607 208.702 42.264C208.867 42.3467 208.981 42.481 209.043 42.667C209.105 42.8323 209.105 43.0183 209.043 43.225C208.981 43.4317 208.836 43.5867 208.609 43.69C207.844 44.062 207.028 44.3307 206.16 44.496C205.313 44.682 204.279 44.744 203.06 44.682ZM202.657 30.391C202.12 30.391 201.593 30.4943 201.076 30.701C200.58 30.887 200.125 31.1763 199.712 31.569C199.278 31.9617 198.916 32.468 198.627 33.088C198.338 33.708 198.162 34.4417 198.1 35.289H206.625C206.604 34.359 206.48 33.584 206.253 32.964C206.026 32.3233 205.726 31.817 205.354 31.445C204.982 31.073 204.558 30.8043 204.083 30.639C203.628 30.4737 203.153 30.391 202.657 30.391ZM211.566 30.67C211.38 30.67 211.204 30.608 211.039 30.484C210.874 30.36 210.791 30.205 210.791 30.019C210.791 29.8123 210.863 29.6573 211.008 29.554C211.153 29.4507 211.318 29.399 211.504 29.399H214.821L218.479 34.762L222.447 29.399H223.47C223.78 29.399 223.997 29.4507 224.121 29.554C224.245 29.6573 224.317 29.771 224.338 29.895C224.379 30.019 224.379 30.1327 224.338 30.236C224.317 30.3393 224.307 30.391 224.307 30.391L219.781 36.56L225.454 44.651H222.571L218.231 38.42L213.55 44.651H210.946L216.929 36.684L213.86 32.313C213.405 31.6723 213.033 31.2383 212.744 31.011C212.475 30.7837 212.083 30.67 211.566 30.67ZM240.937 30.887V44.651H238.271V41.303C238.189 41.6957 238.013 42.109 237.744 42.543C237.496 42.977 237.155 43.3697 236.721 43.721C236.287 44.093 235.76 44.3927 235.14 44.62C234.541 44.8473 233.869 44.961 233.125 44.961C231.451 44.961 230.16 44.465 229.25 43.473C228.341 42.481 227.897 41.024 227.917 39.102V33.46C227.917 33.1913 227.907 32.9433 227.886 32.716C227.886 32.4887 227.866 32.282 227.824 32.096C227.783 31.91 227.711 31.7343 227.607 31.569C227.525 31.4037 227.401 31.259 227.235 31.135C227.07 31.0317 226.884 30.949 226.677 30.887C226.491 30.825 226.305 30.794 226.119 30.794C225.851 30.794 225.634 30.7217 225.468 30.577C225.324 30.4323 225.251 30.2567 225.251 30.05C225.251 29.864 225.324 29.709 225.468 29.585C225.634 29.461 225.82 29.399 226.026 29.399H229.064C229.54 29.399 229.912 29.5643 230.18 29.895C230.449 30.205 230.583 30.5357 230.583 30.887V39.102C230.583 39.5153 230.614 39.939 230.676 40.373C230.738 40.807 230.873 41.1997 231.079 41.551C231.286 41.923 231.596 42.2227 232.009 42.45C232.423 42.6773 232.97 42.791 233.652 42.791C234.376 42.791 235.027 42.6153 235.605 42.264C236.184 41.9127 236.67 41.458 237.062 40.9C237.455 40.342 237.755 39.7323 237.961 39.071C238.168 38.389 238.271 37.7277 238.271 37.087V33.46C238.271 33.1913 238.261 32.9433 238.24 32.716C238.24 32.4887 238.22 32.282 238.178 32.096C238.137 31.91 238.065 31.7343 237.961 31.569C237.879 31.4037 237.755 31.259 237.589 31.135C237.424 31.0317 237.238 30.949 237.031 30.887C236.845 30.825 236.659 30.794 236.473 30.794C236.205 30.794 235.988 30.7217 235.822 30.577C235.678 30.4323 235.605 30.2567 235.605 30.05C235.605 29.864 235.678 29.709 235.822 29.585C235.988 29.461 236.174 29.399 236.38 29.399H239.418C239.894 29.399 240.266 29.5643 240.534 29.895C240.803 30.205 240.937 30.5357 240.937 30.887ZM254.336 29.74V32.127C253.798 31.7963 253.147 31.4967 252.383 31.228C251.618 30.9593 250.864 30.825 250.12 30.825C249.438 30.825 248.797 30.9593 248.198 31.228C247.619 31.476 247.319 31.941 247.299 32.623C247.278 32.871 247.309 33.119 247.392 33.367C247.474 33.615 247.609 33.8217 247.795 33.987C248.311 34.4623 248.869 34.824 249.469 35.072C250.089 35.32 250.709 35.5577 251.329 35.785C251.949 36.033 252.548 36.3327 253.127 36.684C253.705 37.0147 254.232 37.5003 254.708 38.141C254.894 38.4303 255.038 38.7403 255.142 39.071C255.266 39.381 255.328 39.753 255.328 40.187C255.328 41.055 255.142 41.799 254.77 42.419C254.418 43.0183 253.964 43.504 253.406 43.876C252.827 44.2687 252.186 44.5477 251.484 44.713C250.781 44.8783 250.078 44.961 249.376 44.961C248.632 44.961 247.908 44.9093 247.206 44.806C246.524 44.7027 245.904 44.5477 245.346 44.341C244.953 44.217 244.695 44.0103 244.571 43.721C244.447 43.4317 244.405 43.1527 244.447 42.884C244.509 42.6153 244.633 42.3983 244.819 42.233C245.025 42.0677 245.263 42.0263 245.532 42.109C245.738 42.2123 245.966 42.326 246.214 42.45C246.462 42.5533 246.73 42.6567 247.02 42.76C247.309 42.8633 247.629 42.946 247.981 43.008C248.332 43.07 248.714 43.101 249.128 43.101C250.058 43.101 250.884 42.9563 251.608 42.667C252.331 42.357 252.693 41.7163 252.693 40.745C252.693 40.249 252.527 39.815 252.197 39.443C251.887 39.0503 251.442 38.7197 250.864 38.451C250.45 38.2857 249.985 38.11 249.469 37.924C248.973 37.7173 248.466 37.49 247.95 37.242C247.412 36.994 246.906 36.7253 246.431 36.436C245.976 36.126 245.604 35.7747 245.315 35.382C244.922 34.9067 244.695 34.3487 244.633 33.708C244.591 33.0673 244.705 32.4163 244.974 31.755C245.346 30.825 245.976 30.1533 246.865 29.74C247.753 29.306 248.756 29.0787 249.872 29.058C250.14 29.058 250.471 29.0787 250.864 29.12C251.277 29.1407 251.701 29.182 252.135 29.244C252.569 29.306 252.982 29.3887 253.375 29.492C253.767 29.5747 254.088 29.6573 254.336 29.74Z" fill="url(#paint4_linear_2_11)"/>
<defs>
<linearGradient id="paint0_linear_2_11" x1="2.39081" y1="47.8758" x2="114.077" y2="77.169" gradientUnits="userSpaceOnUse">
<stop stop-color="#4291EF"/>
<stop offset="1" stop-color="#4F9DF8" stop-opacity="0.33"/>
</linearGradient>
<linearGradient id="paint1_linear_2_11" x1="2.75862" y1="-3.72718" x2="138.618" y2="12.2299" gradientUnits="userSpaceOnUse">
<stop stop-color="#4291EF"/>
<stop offset="1" stop-color="#4F9DF8" stop-opacity="0.33"/>
</linearGradient>
<linearGradient id="paint2_linear_2_11" x1="4.97471" y1="1.41653" x2="131.697" y2="16.6407" gradientUnits="userSpaceOnUse">
<stop stop-color="#4291EF"/>
<stop offset="1" stop-color="#4F9DF8" stop-opacity="0.33"/>
</linearGradient>
<linearGradient id="paint3_linear_2_11" x1="24.9195" y1="23.7862" x2="70.4178" y2="28.1209" gradientUnits="userSpaceOnUse">
<stop stop-color="#4291EF"/>
<stop offset="1" stop-color="#4F9DF8" stop-opacity="0.33"/>
</linearGradient>
<linearGradient id="paint4_linear_2_11" x1="87.8966" y1="16.6092" x2="367.245" y2="151.345" gradientUnits="userSpaceOnUse">
<stop stop-color="#4291EF"/>
<stop offset="1" stop-color="#4F9DF8" stop-opacity="0.33"/>
</linearGradient>
</defs>
</svg>
